Coordinates
version=1
nRows=11
nColumns=40
inDegrees=yes

Units are S.I. units (second, meters, Newtons, ...)
If the header above contains a line with 'inDegrees', this indicates whether rotational values are in degrees (yes) or radians (no).

endheader
time	pelvis_tilt	pelvis_list	pelvis_rotation	pelvis_tx	pelvis_ty	pelvis_tz	hip_flexion_r	hip_adduction_r	hip_rotation_r	knee_angle_r	knee_angle_r_beta	ankle_angle_r	subtalar_angle_r	mtp_angle_r	hip_flexion_l	hip_adduction_l	hip_rotation_l	knee_angle_l	knee_angle_l_beta	ankle_angle_l	subtalar_angle_l	mtp_angle_l	lumbar_extension	lumbar_bending	lumbar_rotation	arm_flex_r	arm_add_r	arm_rot_r	elbow_flex_r	pro_sup_r	wrist_flex_r	wrist_dev_r	arm_flex_l	arm_add_l	arm_rot_l	elbow_flex_l	pro_sup_l	wrist_flex_l	wrist_dev_l
      1.60000000	      0.32414430	     -6.64482090	     89.69387452	      0.17082510	      0.94291699	      0.11102670	     29.33205075	      1.99889110	     -3.44050021	      7.37987485	      0.12880311	     -4.43232053	      0.00000000	      0.00000000	     -6.23404494	      2.94661935	      2.33745807	     10.77287221	      0.18802209	     10.30706194	      0.00000000	      0.00000000	      1.85521491	      1.00233536	     -2.20126096	      0.00000000	      0.00000000	      0.00000000	      0.00000000	      0.00000000	      0.00000000	      0.00000000	      0.00000000	      0.00000000	      0.00000000	      0.00000000	      0.00000000	      0.00000000	      0.00000000
      1.61000000	      0.63703940	     -6.73862571	     89.70351965	      0.17196178	      0.94236090	      0.10042730	     29.50642945	      2.31676781	     -4.14431898	      8.58340281	      0.14980864	     -5.49187521	      0.00000000	      0.00000000	     -6.39002111	      2.53153769	      2.09541411	     11.59205916	      0.20231960	     10.26193725	      0.00000000	      0.00000000	      2.10731560	      1.37764640	     -2.19114978	      0.00000000	      0.00000000	      0.00000000	      0.00000000	      0.00000000	      0.00000000	      0.00000000	      0.00000000	      0.00000000	      0.00000000	      0.00000000	      0.00000000	      0.00000000	      0.00000000
      1.62000000	      0.94225991	     -6.83683312	     89.71072430	      0.17321476	      0.94196966	      0.08975044	     29.63383799	      2.62514409	     -4.79047440	      9.73961472	      0.16998834	     -6.46102147	      0.00000000	      0.00000000	     -6.47316121	      2.10719815	      1.83760024	     12.51087297	      0.21835593	     10.07116756	      0.00000000	      0.00000000	      2.37467587	      1.71373483	     -2.19014200	      0.00000000	      0.00000000	      0.00000000	      0.00000000	      0.00000000	      0.00000000	      0.00000000	      0.00000000	      0.00000000	      0.00000000	      0.00000000	      0.00000000	      0.00000000	      0.00000000
      1.63000000	      1.24803128	     -6.91359768	     89.71765361	      0.17438970	      0.94174986	      0.07899176	     29.70614164	      2.92093557	     -5.32127992	     10.87238983	      0.18975900	     -7.31475206	      0.00000000	     -0.00000000	     -6.49150704	      1.67802557	      1.57194985	     13.57866145	      0.23699235	      9.69300118	     -0.00000000	      0.00000000	      2.62411174	      2.09346415	     -2.16899249	     -0.00000000	      0.00000000	      0.00000000	      0.00000000	      0.00000000	      0.00000000	      0.00000000	     -0.00000000	      0.00000000	     -0.00000000	      0.00000000	      0.00000000	      0.00000000	      0.00000000
      1.64000000	      1.54986419	     -7.00182786	     89.71828857	      0.17565370	      0.94168486	      0.06822754	     29.75446546	      3.22127545	     -5.74359429	     11.95970371	      0.20873621	     -8.02744512	      0.00000000	      0.00000000	     -6.39161582	      1.23065372	      1.27326925	     14.80715759	      0.25843365	      9.16422563	      0.00000000	      0.00000000	      2.89818720	      2.45320340	     -2.14943448	      0.00000000	      0.00000000	      0.00000000	      0.00000000	      0.00000000	      0.00000000	      0.00000000	      0.00000000	      0.00000000	      0.00000000	      0.00000000	      0.00000000	      0.00000000	      0.00000000
      1.65000000	      1.85477237	     -7.07371723	     89.71673854	      0.17698854	      0.94180589	      0.05741115	     29.72740126	      3.53354925	     -6.09831802	     12.97177909	      0.22640025	     -8.53211542	      0.00000000	     -0.00000000	     -6.19370004	      0.75488859	      0.94864163	     16.21779354	      0.28305389	      8.41382712	      0.00000000	      0.00000000	      3.16725221	      2.80276641	     -2.13022187	     -0.00000000	      0.00000000	     -0.00000000	      0.00000000	      0.00000000	      0.00000000	     -0.00000000	     -0.00000000	     -0.00000000	      0.00000000	      0.00000000	      0.00000000	      0.00000000	     -0.00000000
      1.66000000	      2.14690209	     -7.12984049	     89.71664566	      0.17832929	      0.94214726	      0.04669873	     29.64005878	      3.84073377	     -6.31749226	     13.91170309	      0.24280502	     -8.81602222	      0.00000000	      0.00000000	     -5.89580925	      0.26637688	      0.61343651	     17.76622093	      0.31007905	      7.45048668	      0.00000000	      0.00000000	      3.37198136	      3.14396486	     -2.09135370	      0.00000000	      0.00000000	      0.00000000	      0.00000000	      0.00000000	      0.00000000	      0.00000000	      0.00000000	      0.00000000	      0.00000000	      0.00000000	      0.00000000	      0.00000000	      0.00000000
      1.67000000	      2.40383861	     -7.13678923	     89.70844308	      0.17972632	      0.94270819	      0.03595119	     29.42952384	      4.13093349	     -6.47204338	     14.75064944	      0.25744740	     -8.87722650	     -0.00000000	     -0.00000000	     -5.51503085	     -0.20545531	      0.27680562	     19.51875559	      0.34066655	      6.25092264	     -0.00000000	     -0.00000000	      3.54947053	      3.42763406	     -2.03442567	      0.00000000	      0.00000000	      0.00000000	      0.00000000	      0.00000000	     -0.00000000	      0.00000000	     -0.00000000	     -0.00000000	     -0.00000000	      0.00000000	      0.00000000	      0.00000000	     -0.00000000
      1.68000000	      2.66971008	     -7.20454146	     89.70680496	      0.18113534	      0.94335182	      0.02537196	     29.24080597	      4.44230920	     -6.51362911	     15.50971320	      0.27069556	     -8.77095231	      0.00000000	      0.00000000	     -4.90960176	     -0.71886077	     -0.09806029	     21.48546759	      0.37499215	      4.84428284	      0.00000000	      0.00000000	      3.76451689	      3.72999529	     -1.96300390	      0.00000000	      0.00000000	      0.00000000	      0.00000000	      0.00000000	      0.00000000	      0.00000000	      0.00000000	      0.00000000	      0.00000000	      0.00000000	      0.00000000	      0.00000000	      0.00000000
      1.69000000	      2.89656101	     -7.17516058	     89.69874620	      0.18258271	      0.94426086	      0.01479755	     28.87978267	      4.72205896	     -6.58486484	     16.17086537	      0.28223484	     -8.47608803	      0.00000000	      0.00000000	     -4.27098498	     -1.21859280	     -0.48004172	     23.63555016	      0.41251817	      3.19337634	      0.00000000	      0.00000000	      3.86881962	      3.98008079	     -1.91158806	      0.00000000	      0.00000000	      0.00000000	      0.00000000	      0.00000000	      0.00000000	      0.00000000	      0.00000000	      0.00000000	      0.00000000	      0.00000000	      0.00000000	      0.00000000	      0.00000000
      1.70000000	      3.10365710	     -7.19584670	     89.68590423	      0.18407581	      0.94522199	      0.00436554	     28.51877569	      5.01052934	     -6.52687403	     16.73719836	      0.29211922	     -8.06027401	      0.00000000	     -0.00000000	     -3.42228589	     -1.72865888	     -0.87655331	     25.99230350	      0.45365128	      1.33825936	      0.00000000	      0.00000000	      4.02274712	      4.19399549	     -1.80179467	      0.00000000	     -0.00000000	     -0.00000000	      0.00000000	      0.00000000	     -0.00000000	      0.00000000	     -0.00000000	      0.00000000	     -0.00000000	      0.00000000	      0.00000000	      0.00000000	     -0.00000000
